<svg width="164" height="164" fill="none" xmlns="http://www.w3.org/2000/svg"><path d="M158.647 55.9394h-15.528c-1.725-4.052-3.851-7.9214-6.346-11.5505-1.084-1.576-2.231-3.0942-3.44-4.5549 1.189-2.6201 1.65-5.9161 1.365-9.856-.039-.5397-.272-1.0472-.656-1.4286-.384-.3815-.893-.6113-1.433-.647-4.061-.2915-7.434.205-10.09 1.4798-7.062-5.4374-15.146-9.4002-23.7699-11.6529.4774-2.2907.6166-4.639.4132-6.97-.0387-.5377-.2698-1.0435-.651-1.4247-.3812-.3812-.887-.61229-1.4247-.65095-6.3678-.45805-11.0507 1.0218-13.9208 4.39785-.4389.5137-.8293 1.067-1.1659 1.6529-.3361-.5892-.7265-1.1458-1.1659-1.6625-2.8828-3.37606-7.5498-4.85591-13.9208-4.39786-.5377.03866-1.0435.26975-1.4247.65095-.3812.3812-.6123.88701-.6509 1.42471-.2044 2.3234-.0662 4.6643.41 6.9475-1.9219.4955-3.8118 1.0774-5.6696 1.7457-7.1809 2.5921-13.8644 6.3959-19.7601 11.2462-2.8828-2.2422-6.9892-3.1743-12.2391-2.7963-.5377.0386-1.0435.2697-1.4247.6509-.3812.3812-.6123.887-.6509 1.4247-.394 5.4453.6406 9.6542 3.0526 12.5563-7.6186 10.326-12.0862 22.6361-12.8638 35.4449-.7775 12.8088 2.1683 25.5694 8.4819 36.7404 2.818 4.965 6.2629 9.547 10.25 13.633h-7.396c-2.0542.002-4.0236.819-5.4761 2.272-1.4526 1.453-2.2697 3.422-2.2723 5.476 0 .866-.3439 1.696-.956 2.308-.6121.612-1.4423.956-2.308.956H4.93591c-.59466 0-1.16497.236-1.58546.657-.42049.42-.65672.991-.65672 1.585 0 .595.23623 1.165.65672 1.586.42049.42.9908.657 1.58546.657H16.0155c2.0539-.003 4.023-.82 5.475-2.273 1.452-1.453 2.2685-3.422 2.2702-5.476.0008-.865.345-1.695.9569-2.307.6119-.612 1.4417-.956 2.3071-.957h12.2039C51.15 142.88 66.2358 148.405 81.8301 148.43h.1698c8.8721.03 17.6589-1.732 25.8331-5.181 8.174-3.449 15.568-8.514 21.737-14.89 2.476-2.541 4.746-5.276 6.787-8.178 6.023-8.587 9.932-18.476 11.407-28.861 1.475-10.3849.475-20.9714-2.919-30.8963h13.802c.595 0 1.165-.2362 1.586-.6567.42-.4205.657-.9908.657-1.5855 0-.5946-.237-1.1649-.657-1.5854-.421-.4205-.991-.6567-1.586-.6567Zm-31.243-15.4711c-2.2 1.8834-5.298 1.9699-7.104 1.8225-.144-1.8033-.058-4.8943 1.803-7.0853 1.624-1.9218 4.369-2.8828 8.181-2.8828-.019 3.7829-.987 6.5216-2.88 8.1456ZM86.5804 15.9868c1.624-1.9219 4.369-2.8828 8.1808-2.8828-.0193 3.7989-.9866 6.5407-2.8829 8.1615-2.1909 1.8674-5.2947 1.9571-7.1013 1.797-.1441-1.7938-.0576-4.8848 1.8034-7.0757Zm-9.177-.0192c1.8835 2.2005 1.9699 5.3011 1.8194 7.1045-1.8066.1473-4.904.0608-7.1045-1.8226-1.8931-1.6208-2.8604-4.3626-2.8828-8.1616 3.7957.0193 6.5439.9834 8.1679 2.8797ZM55.4268 32.3035c-.0192 3.7989-.9834 6.5376-2.8828 8.1616-2.2006 1.8866-5.3012 1.9699-7.1046 1.8225-.1473-1.8065-.064-4.904 1.8194-7.1045 1.6272-1.893 4.3691-2.8604 8.1552-2.8764l.0128-.0032ZM38.069 35.1863c1.8835 2.1973 1.97 5.298 1.8226 7.1013-1.8033.1474-4.8976.0609-7.0885-1.8033-1.9219-1.6208-2.8828-4.3691-2.8828-8.1776 3.7829.0192 6.5248.9834 8.1487 2.8796Zm-.6406 63.3931c.0672.5043.1004 1.0126.0993 1.5216-.0116 2.788-1.0236 5.478-2.8518 7.583-1.8283 2.104-4.3512 3.483-7.1099 3.884-4.2063-7.755-6.7106-16.3178-7.3458-25.1172-.6352-8.7994.6133-17.633 3.6622-25.9118 3.2623-.9146 6.7301-.7758 9.9089.3966 3.1788 1.1724 5.9063 3.3185 7.7935 6.1324 1.8871 2.8139 2.8376 6.1518 2.7159 9.5377-.1217 3.3859-1.3094 6.647-3.3937 9.3181-1.3844 1.7765-2.4041 3.8091-3.0005 5.981-.5964 2.1718-.7578 4.4401-.4749 6.6746h-.0032Zm47.9764 45.2726v-.522c.0017-2.521 1.0037-4.939 2.786-6.723 1.7823-1.783 4.1995-2.787 6.7209-2.79 3.7316 0 6.4283 2.05 8.0363 3.773.612.659 1.164 1.371 1.65 2.127-6.1358 2.395-12.6156 3.791-19.1932 4.135Zm58.5372-61.6823c-.007 12.6873-3.936 25.0623-11.249 35.4303-6.243 8.875-14.692 15.969-24.514 20.583-.69-1.15-1.499-2.224-2.415-3.203-3.008-3.219-6.858-4.994-10.8459-4.994-3.5403.005-6.9341 1.414-9.437 3.918-2.5028 2.504-3.9102 5.899-3.9136 9.439v.609c-11.0174-.073-21.8156-3.086-31.2785-8.729-1.2621-.756-2.4931-1.554-3.6932-2.396h7.9918c.5946 0 1.1649-.236 1.5854-.657.4205-.42.6568-.99.6568-1.585s-.2363-1.165-.6568-1.585c-.4205-.421-.9908-.657-1.5854-.657H40.9102c-4.3636-3.872-8.1612-8.338-11.2814-13.268 3.6881-.907 6.9121-3.142 9.055-6.278 2.1429-3.136 3.0542-6.952 2.5595-10.7173-.2198-1.7307-.0949-3.4878.3674-5.17.4624-1.6822 1.253-3.2563 2.3265-4.6316 2.3471-3.0071 3.7821-6.6245 4.1345-10.4228.3525-3.7982-.3923-7.6179-2.1459-11.0055-1.7537-3.3877-4.4426-6.201-7.7475-8.1059-3.3049-1.905-7.087-2.8217-10.8974-2.6412-.5477.0256-1.0922.0769-1.6336.1474 1.752-3.8486 3.8989-7.5049 6.4063-10.9099 2.087 1.0143 4.384 1.5214 6.7041 1.4799.426 0 .8264 0 1.198-.0385v7.7452c0 .5946.2362 1.1649.6567 1.5854.4205.4205.9908.6568 1.5855.6568.5946 0 1.1649-.2363 1.5854-.6568.4205-.4205.6568-.9908.6568-1.5854v-7.8317c.7197.084 1.4438.1257 2.1685.125 2.5625 0 6.0411-.5382 8.8406-2.9181 3.3761-2.8828 4.8559-7.5562 4.3947-13.924-.0386-.5372-.2692-1.0425-.6498-1.4237-.3805-.3811-.8855-.6125-1.4226-.6519-2.1553-.1838-4.3255-.0826-6.4543.3011 3.1237-1.7939 6.3993-3.3095 9.7887-4.5292 1.9059-.6855 3.8438-1.2813 5.8041-1.7585.6242 1.0431 1.4139 1.9778 2.3383 2.7675 2.7995 2.3799 6.2685 2.918 8.8438 2.918.6182 0 1.1884-.0288 1.6816-.0737v7.7804c0 .5947.2363 1.165.6568 1.5855.4205.4205.9907.6567 1.5854.6567.5947 0 1.165-.2362 1.5855-.6567.4205-.4205.6567-.9908.6567-1.5855v-7.7804c.4933.0449 1.0634.0737 1.6816.0737 2.5626 0 6.0444-.5381 8.8439-2.918.917-.7848 1.7021-1.7116 2.3255-2.7451 7.8309 1.9721 15.2009 5.4538 21.6979 10.25l-.102.1153c-.445.512-.841 1.0642-1.182 1.6496-.337-.5892-.727-1.1457-1.166-1.6624-2.883-3.3761-7.553-4.856-13.921-4.3979-.538.0386-1.044.2697-1.425.6509-.381.3812-.612.887-.651 1.4247-.461 6.3678 1.019 11.054 4.395 13.924 2.799 2.3799 6.268 2.918 8.841 2.918.599 0 1.143-.0288 1.624-.0704v7.7772c0 .5946.236 1.1649.656 1.5854.421.4205.991.6568 1.586.6568.594 0 1.165-.2363 1.585-.6568.421-.4205.657-.9908.657-1.5854V46.74c.509.048 1.099.0801 1.742.0801 2.563 0 6.045-.5382 8.844-2.9181.109-.0929.212-.1922.321-.2915.852 1.0763 1.675 2.1814 2.456 3.3217 1.966 2.8524 3.688 5.8655 5.148 9.0072h-7.127c-2.054.0025-4.022.8193-5.474 2.2713-1.452 1.4519-2.269 3.4204-2.271 5.4738-.002.8649-.347 1.6938-.958 2.305-.612.6112-1.441.9549-2.306.9558h-11.083c-.595 0-1.165.2362-1.586.6567-.42.4205-.656.9908-.656 1.5855 0 .5946.236 1.165.656 1.5854.421.4205.991.6568 1.586.6568h11.083c2.054-.0026 4.023-.8197 5.476-2.2723 1.452-1.4525 2.269-3.4219 2.272-5.4761.002-.8643.346-1.6927.957-2.3038.611-.6112 1.44-.9553 2.304-.957h8.997c2.58 6.9597 3.887 14.3269 3.857 21.7492Zm-29.197-39.8885c-1.806.1474-4.904.0609-7.104-1.8226-1.896-1.6239-2.86-4.3626-2.883-8.1615 3.799.0192 6.541.9833 8.165 2.8828 1.887 2.207 1.973 5.3076 1.822 7.1013Z" fill="#7C6A0A"/><path d="M101.164 80.6101c-2.3838.0025-4.6696.9505-6.3557 2.6361-1.6862 1.6855-2.635 3.971-2.6384 6.3551 0 .6796.27 1.3314.7506 1.8119.4805.4806 1.1323.7506 1.8119.7506s1.3314-.27 1.812-.7506c.4805-.4805.7505-1.1323.7505-1.8119.029-1.0065.4492-1.9621 1.1714-2.6638.7222-.7017 1.6897-1.0943 2.6967-1.0943s1.974.3926 2.696 1.0943c.722.7017 1.142 1.6573 1.171 2.6638 0 .6796.27 1.3314.751 1.8119.481.4806 1.132.7506 1.812.7506.68 0 1.331-.27 1.812-.7506.48-.4805.75-1.1323.75-1.8119-.002-2.3838-.95-4.6693-2.636-6.3549-1.685-1.6856-3.971-2.6337-6.355-2.6363ZM92.1505 100.111c-.6796 0-1.3314.27-1.8119.75-.4806.481-.7506 1.132-.7506 1.812 0 2.303-.9148 4.512-2.5433 6.14-1.6285 1.629-3.8373 2.544-6.1403 2.544-2.3031 0-4.5118-.915-6.1403-2.544-1.6285-1.628-2.5434-3.837-2.5434-6.14 0-.68-.27-1.331-.7505-1.812-.4806-.48-1.1324-.75-1.812-.75s-1.3314.27-1.812.75c-.4805.481-.7505 1.132-.7505 1.812 0 3.662 1.4548 7.175 4.0445 9.764 2.5896 2.59 6.1019 4.045 9.7642 4.045 3.6623 0 7.1746-1.455 9.7642-4.045 2.5896-2.589 4.0444-6.102 4.0444-9.764 0-.68-.2699-1.331-.7505-1.812-.4805-.48-1.1323-.75-1.812-.75ZM69.7097 89.6013c-.0445-2.3557-1.0115-4.5998-2.6931-6.25-1.6816-1.6502-3.9436-2.5747-6.2997-2.5747-2.3561 0-4.6181.9245-6.2997 2.5747-1.6816 1.6502-2.6486 3.8943-2.6931 6.25 0 .6796.27 1.3314.7506 1.8119.4805.4806 1.1323.7506 1.8119.7506s1.3314-.27 1.812-.7506c.4805-.4805.7505-1.1323.7505-1.8119.029-1.0066.4492-1.9622 1.1714-2.6639s1.6894-1.0942 2.6964-1.0942c1.0069 0 1.9742.3925 2.6964 1.0942.7222.7017 1.1424 1.6573 1.1714 2.6639 0 .6796.2699 1.3314.7505 1.8119.4806.4806 1.1324.7506 1.812.7506s1.3314-.27 1.8119-.7506c.4806-.4805.7506-1.1323.7506-1.8119ZM149.666 146.274c-3.603-1.493-4.366-2.258-5.846-5.859-.254-.614-.685-1.139-1.238-1.509-.553-.369-1.204-.566-1.869-.566s-1.315.197-1.868.566c-.553.37-.984.895-1.239 1.509-1.492 3.601-2.258 4.366-5.858 5.859-.615.255-1.14.686-1.509 1.239-.37.553-.567 1.203-.567 1.868s.197 1.315.567 1.868c.369.553.894.984 1.509 1.239 3.523 1.457 4.398 2.335 5.855 5.855.254.616.685 1.142 1.239 1.512.553.37 1.204.568 1.87.568.666 0 1.316-.198 1.87-.568.553-.37.984-.896 1.238-1.512 1.458-3.523 2.335-4.401 5.856-5.858.614-.255 1.139-.686 1.509-1.239.369-.553.566-1.203.566-1.868s-.197-1.315-.566-1.868c-.37-.553-.895-.985-1.509-1.239l-.01.003Zm-8.969 9.574c-1.537-3.373-3.094-4.929-6.467-6.467 3.408-1.544 4.92-3.056 6.467-6.467 1.544 3.411 3.056 4.923 6.467 6.467-3.366 1.538-4.926 3.088-6.46 6.467h-.007ZM8.85047 19.1994c3.52343 1.4574 4.39793 2.3319 5.85533 5.8553.2546.6144.6857 1.1396 1.2387 1.509.5531.3695 1.2032.5667 1.8683.5667s1.3153-.1972 1.8683-.5667c.553-.3694.9841-.8946 1.2387-1.509 1.4607-3.5234 2.3351-4.3979 5.8586-5.8553.6141-.2553 1.1389-.6868 1.5081-1.24.3692-.5533.5662-1.2035.5662-1.8686s-.197-1.3154-.5662-1.8686c-.3692-.5533-.894-.9848-1.5081-1.2401-3.6004-1.4894-4.3659-2.2421-5.8554-5.85526-.2552-.61418-.6867-1.13897-1.24-1.50815-.5532-.36918-1.2035-.5662-1.8686-.5662s-1.3153.19702-1.8686.5662c-.5532.36918-.9847.89397-1.24 1.50815-1.4895 3.60026-2.2422 4.36586-5.85533 5.85526-.61418.2553-1.13897.6868-1.50815 1.2401-.36918.5532-.5662 1.2035-.5662 1.8686s.19702 1.3153.5662 1.8686c.36918.5532.89397.9847 1.50815 1.24Zm8.96873-9.57413c1.5407 3.41133 3.0526 4.92003 6.4607 6.46713-3.3729 1.5247-4.9296 3.0942-6.4671 6.4671-1.5343-3.3729-3.0782-4.9424-6.4671-6.4671 3.4113-1.5471 4.9232-3.0558 6.4671-6.46713h.0064Z" fill="#7C6A0A"/></svg>