<svg width="164" height="164" fill="none" xmlns="http://www.w3.org/2000/svg"><path d="M37.6624 58.2714c0 11.5024 4.385 22.4058 12.3512 30.7019 6.3614 6.6273 9.8752 15.4107 9.8977 24.7477h-3.3377c-1.7777 0-3.2223 1.444-3.2223 3.222v19.081c0 1.778 1.4446 3.222 3.2223 3.222h7.7291v8.578c0 1.24 1.0026 2.243 2.2422 2.243h30.9134c1.2396 0 2.2422-1.003 2.2422-2.243v-8.578h7.7295c1.777 0 3.222-1.444 3.222-3.222v-2.406c0-1.239-1.003-2.242-2.242-2.242-1.24 0-2.242 1.003-2.242 2.242v1.144H57.8356v-6.038h16.2271c1.2396 0 2.2422-1.002 2.2422-2.242s-1.0026-2.242-2.2422-2.242H57.8356v-6.038h48.3324v1.697c0 1.24 1.002 2.243 2.242 2.243 1.239 0 2.242-1.003 2.242-2.243v-2.956c0-1.778-1.445-3.222-3.222-3.222H84.2422V84.0661l6.5408-7.806c1.2108.2114 2.4247.3171 3.6291.3171 5.471 0 10.7429-2.1493 14.7339-6.1404 5.206-5.205 7.278-12.5882 5.535-19.7504-.198-.8136-.836-1.451-1.649-1.6496-7.159-1.7361-14.5423.3331-19.7474 5.5382-4.9296 4.9296-7.0469 11.8163-5.7784 18.6133L82 79.7547l-5.5062-6.5696c1.2685-6.8002-.8488-13.6837-5.7784-18.6133-5.2051-5.2051-12.5851-7.2743-19.7473-5.5382-.8168.1986-1.451.8328-1.6496 1.6496-1.7393 7.1589.3299 14.5421 5.535 19.7504 3.9911 3.9911 9.2635 6.1404 14.7344 6.1404 1.2044 0 2.4152-.1057 3.6291-.3171l6.5408 7.806v29.6541H64.3956c-.0256-10.496-3.9814-20.3842-11.1468-27.8507-7.159-7.4569-11.1021-17.2552-11.1021-27.5949 0-10.6985 4.1801-20.7403 11.7715-28.2772 7.5882-7.537 17.6556-11.6402 28.3637-11.5729 21.1241.1441 38.8701 17.4282 39.5521 38.5272.346 10.7369-3.52 20.9388-10.891 28.7192-5.214 5.5062-8.815 12.2552-10.41 19.5133-.266 1.211.5 2.406 1.711 2.672 1.207.265 2.405-.5 2.671-1.711 1.419-6.4606 4.629-12.4761 9.286-17.3897 8.2-8.658 12.502-20.0035 12.117-31.948-.371-11.4575-5.131-22.2008-13.401-30.2567-8.268-8.0526-19.1359-12.5306-30.6031-12.6107-11.906-.0737-23.1105 4.4908-31.554 12.8766-8.4466 8.3858-13.0975 19.5583-13.0975 31.4579Zm57.5537 80.9746v6.336h-26.429v-6.336h26.429Zm1.2396-81.5031c3.7573-3.7573 8.9593-5.4357 14.1423-4.6254.813 5.1859-.865 10.3878-4.623 14.145-3.757 3.7573-8.9587 5.4357-14.1446 4.6222-.8104-5.1827.868-10.3846 4.6253-14.1418Zm-38.4311 9.5196c-3.7572-3.7572-5.4357-8.9591-4.6221-14.145 5.1859-.8103 10.3845.8681 14.1418 4.6254 3.7573 3.7572 5.4357 8.9591 4.6253 14.1418-5.1826.8135-10.3877-.8649-14.145-4.6222Z" fill="#7C6A0A"/><path d="M97.8874 31.4418c-1.0634-.6342-2.4408-.2883-3.075.7752-.6342 1.0634-.2882 2.4408.7752 3.075.2018.1217.4004.2434.599.3683.3715.2371.7879.3492 1.1979.3492.7432 0 1.4703-.3684 1.8963-1.0442.663-1.0475.3523-2.4312-.6951-3.0943-.2306-.1441-.4644-.2882-.6983-.4292ZM82.2146 27.0664H82c-7.2904 0-14.3917 2.5785-19.9875 7.2583-.9514.7944-1.0763 2.2069-.2819 3.1583.442.5317 1.0794.804 1.7201.804.506 0 1.0185-.1698 1.4382-.5222 4.795-4.0071 10.8714-6.214 17.1046-6.214h.1986c1.576.0096 3.1551.1633 4.6958.4484 1.2172.2274 2.3896-.5765 2.617-1.7937.2274-1.2172-.5766-2.3896-1.7938-2.617-1.8033-.3331-3.6515-.5093-5.4965-.5221ZM110.479 126.703c-.055-.138-.125-.266-.205-.388-.083-.125-.176-.237-.279-.343-.105-.102-.218-.195-.343-.278-.121-.08-.249-.151-.387-.205-.135-.058-.276-.1-.42-.128-.727-.148-1.502.093-2.021.611-.106.106-.198.218-.279.343-.083.122-.15.25-.208.388-.054.134-.099.275-.128.419-.029.145-.042.292-.042.436 0 .593.238 1.169.657 1.586.417.419.993.656 1.586.656.144 0 .291-.013.435-.041.144-.029.285-.074.42-.129.138-.057.266-.124.387-.208.125-.08.238-.173.343-.278.417-.417.657-.993.657-1.586 0-.144-.016-.291-.045-.436-.029-.144-.07-.285-.128-.419ZM84.7449 124.24c-1.2396 0-2.2422 1.002-2.2422 2.242 0 1.239 1.0026 2.242 2.2422 2.242h2.9436c1.2397 0 2.2422-1.003 2.2422-2.242 0-1.24-1.0025-2.242-2.2422-2.242h-2.9436Z" fill="#7C6A0A"/></svg>