<svg width="45" height="45" fill="none" xmlns="http://www.w3.org/2000/svg"><g clip-path="url(#a)"><path d="M40.7716 6.3877v32.7061c-.0058.0704-.0385.1358-.0914.1827-.022.429-.2023.8345-.5061 1.1383-.3037.3037-.7093.4841-1.1383.5061h-9.5926V26.8518h4.4766c.274 0 .274 0 .3654-.274l.2741-2.284c.0913-.9136.1827-1.8271.3654-2.7407s0-.2741-.1827-.2741h-5.2988v-3.5629c0-.2741.0914-.6395.0914-.9136.0397-.3741.2065-.7233.4725-.9893.266-.266.6151-.4327.9892-.4724l1.1877-.1828h2.7407c.1827 0 .1827 0 .1827-.1827v-4.6592c0-.0914 0-.1827-.1827-.1827h-4.2025c-1.0414-.0286-2.0746.1906-3.0148.6395-.6953.234-1.3367.6053-1.8859 1.0917-.5493.4865-.9953 1.0783-1.3116 1.7404-.5211 1.0156-.7727 2.1481-.7308 3.2888-.0914 1.3704 0 2.8321 0 4.2938h-4.6593c-.1827 0-.1827.0914-.1827.1828v5.2074c0 .1827 0 .1827.1827.1827h4.6593v14.0691c-.0529.0468-.0856.1123-.0914.1827H5.96431c-.42899-.0221-.83458-.2024-1.13832-.5061-.30375-.3038-.48407-.7094-.50612-1.1384-.09135 0-.09135-.0913-.09135-.1827V6.3877c0-.09136 0-.18271.09135-.18271.02205-.429.20237-.83458.50612-1.13833.30374-.30374.70933-.48407 1.13832-.50611H39.0358c.429.02204.8346.20237 1.1383.50611.3038.30375.4841.70933.5061 1.13833l.0914.18271Z" fill="#fff"/></g><defs><clipPath id="a"><path fill="#fff" transform="translate(.574219 .814941)" d="M0 0h43.8517v43.8517H0z"/></clipPath></defs></svg>