<svg width="24" height="24" fill="none" xmlns="http://www.w3.org/2000/svg"><path d="M3.34255 7.7779c.22615-.54596.55762-1.04204.97549-1.45991.41786-.41787.91394-.74934 1.45991-.97549.54597-.22615 1.13114-.34255 1.72209-.34255.59095 0 1.17612.1164 1.72209.34255.54597.22615 1.04207.55762 1.45987.97549L12 7.63599l1.318-1.318c.844-.84392 1.9886-1.31802 3.182-1.31802 1.1935 0 2.3381.4741 3.182 1.31802.844.84392 1.3181 1.98852 1.3181 3.182 0 1.19351-.4741 2.33811-1.3181 3.18201L12 20.364l-7.68196-7.682c-.41787-.4179-.74934-.9139-.97549-1.4599C3.1164 10.6761 3 10.0909 3 9.49999c0-.59095.1164-1.17612.34255-1.72209Z" stroke="#3F3F46" stroke-width="2" stroke-linecap="round" stroke-linejoin="round"/></svg>