<svg width="44" height="45" fill="none" xmlns="http://www.w3.org/2000/svg"><path d="M35.3623 11.7725v.0014c0 1.3621-1.1045 2.4653-2.4653 2.4653s-2.4653-1.1045-2.4653-2.4653c0-1.3622 1.1045-2.4653 2.4653-2.4653 1.3608.00137 2.4639 1.1031 2.4653 2.4639ZM21.9259 29.5914c-3.7836 0-6.8505-3.0669-6.8505-6.8505 0-3.7836 3.0669-6.8504 6.8505-6.8504 3.7835 0 6.8504 3.0668 6.8504 6.8504 0 3.7822-3.0655 6.8491-6.8477 6.8491h-.0014l-.0013.0014Zm0-17.4023c-5.8282 0-10.5519 4.725-10.5519 10.5518s4.7251 10.5518 10.5519 10.5518c5.8281 0 10.5518-4.725 10.5518-10.5518v-.0014c0-5.8267-4.7237-10.5518-10.5518-10.5518h-.0014l.0014.0014Zm0-6.29819c5.4855 0 6.1392.0274 8.3057.12196 1.3745.01644 2.6818.27681 3.8919.73725l-.0781-.02603c1.8006.70162 3.1984 2.0994 3.885 3.85351l.0164.0465c.433 1.132.6907 2.4407.7071 3.8069v.0069c.0973 2.1679.1192 2.8188.1192 8.3058 0 5.4869-.026 6.1392-.126 8.3057-.0261 1.3759-.2878 2.6832-.7469 3.8933l.026-.0795c-.3535.9263-.877 1.7157-1.5389 2.3652l-.0013.0014c-.6482.6633-1.4376 1.1867-2.3187 1.5197l-.0439.0151c-1.136.433-2.4488.6907-3.8205.7071h-.0069c-2.1816.0973-2.8243.1192-8.3208.1192-5.4993 0-6.1407-.026-8.3209-.126-1.3813-.0261-2.6941-.2878-3.90966-.7469l.08085.026c-.92636-.348-1.7157-.8729-2.35977-1.5375l-.00137-.0014c-.67011-.644-1.19633-1.4347-1.52658-2.32l-.01371-.0425c-.43166-1.1346-.6934-2.4461-.71944-3.8165v-.0109c-.07674-2.1583-.10415-2.8243-.10415-8.2948 0-5.4733.02741-6.1406.10415-8.325.02604-1.38.28641-2.6914.74548-3.9055l-.02604.0808c.33848-.93048.86607-1.72255 1.53892-2.36251l.00274-.00274c.64133-.67422 1.43203-1.19907 2.31866-1.52384l.04248-.01371c1.12784-.43577 2.43104-.69751 3.79314-.72081h.0096c2.183-.07674 2.8257-.10278 8.3209-.10278l.0754.0466Zm0-3.69999c-5.5829 0-6.2791.02603-8.4716.12333-1.8021.03837-3.51092.38644-5.09232.99078l.10415-.03426C7.04095 3.8148 5.8268 4.62195 4.82644 5.63876l-.00138.00137C3.80414 6.64049 2.99837 7.85601 2.47763 9.21267l-.0233.06852c-.57007 1.47721-.91814 3.18751-.95514 4.97171v.0164c-.10278 2.1926-.12334 2.8888-.12334 8.4716 0 5.5829.02604 6.279.12334 8.4716.03837 1.802.38644 3.5109.99077 5.0923l-.03426-.1042c1.09081 2.7696 3.24092 4.9197 5.93917 5.9858l.07126.0247c1.47725.5687 3.18747.9167 4.97167.9551h.0165c2.1925.1028 2.8887.1234 8.4716.1234 5.5828 0 6.279-.0261 8.4716-.1234 1.802-.0397 3.5108-.3864 5.0922-.9908l-.1041.0357c2.7695-1.0908 4.9196-3.2409 5.9857-5.9392l.0247-.0713c.5701-1.4772.9168-3.1874.9552-4.9716v-.0165c.1027-2.1926.1233-2.8887.1233-8.4716 0-5.5828-.026-6.279-.1233-8.4716-.0398-1.802-.3865-3.5109-.9908-5.09226l.0356.10415c-.5454-1.42518-1.3512-2.63932-2.3694-3.63969l-.0013-.00137c-1.0004-1.02092-2.2159-1.8267-3.5726-2.34744l-.0685-.02329c-1.4772-.57008-3.1875-.91815-4.9717-.95515h-.0164c-2.1926-.10278-2.8887-.12333-8.4716-.12333h.0014Z" fill="#fff"/></svg>