<svg width="44" height="45" fill="none" xmlns="http://www.w3.org/2000/svg"><g clip-path="url(#a)"><path d="M43.9999 9.12674c-1.6077.71831-3.3522 1.19716-5.1651 1.41956 1.8642-1.11172 3.2838-2.87331 3.9508-4.97696-1.7445 1.02617-3.66 1.7787-5.7124 2.18917-1.6418-1.74449-3.9849-2.83908-6.5675-2.83908-4.9598 0-8.9961 4.03628-8.9961 8.99607 0 .7012.0685 1.3854.2395 2.0524-7.474-.3763-14.10986-3.9508-18.5395-9.40659-.76963 1.33402-1.2143 2.87328-1.2143 4.53229 0 3.1127 1.59057 5.8662 4.00207 7.491-1.47085-.0513-2.85618-.4618-4.07048-1.1288v.1026c0 4.3613 3.09562 8.0042 7.2174 8.8251-.75252.2052-1.55636.325-2.3773.325-.58149 0-1.14588-.0513-1.69318-.154 1.14589 3.5745 4.46385 6.1742 8.39749 6.2426-3.0785 2.4115-6.96085 3.8481-11.16815 3.8481-.71832 0-1.436637-.0342-2.154957-.1197C4.13316 39.0738 8.85354 40.5618 13.9331 40.5618c16.5555 0 25.603-13.7165 25.603-25.603 0-.3934-.0001-.7867-.0172-1.163 1.7616-1.2827 3.2838-2.8562 4.481-4.66906Z" fill="#fff"/></g><defs><clipPath id="a"><path fill="#fff" transform="translate(.148193 .814941)" d="M0 0h43.8517v43.8517H0z"/></clipPath></defs></svg>