<svg width="24" height="24" fill="none" xmlns="http://www.w3.org/2000/svg"><path d="M5.121 17.804C7.21942 16.6179 9.58958 15.9963 12 16c2.5 0 4.847.655 6.879 1.804M15 10c0 .7956-.3161 1.5587-.8787 2.1213C13.5587 12.6839 12.7956 13 12 13c-.7956 0-1.5587-.3161-2.12132-.8787C9.31607 11.5587 9 10.7956 9 10c0-.79565.31607-1.55871.87868-2.12132C10.4413 7.31607 11.2044 7 12 7c.7956 0 1.5587.31607 2.1213.87868C14.6839 8.44129 15 9.20435 15 10Zm6 2c0 1.1819-.2328 2.3522-.6851 3.4442-.4523 1.0919-1.1152 2.084-1.9509 2.9198-.8358.8357-1.8279 1.4986-2.9198 1.9509C14.3522 20.7672 13.1819 21 12 21c-1.1819 0-2.35222-.2328-3.44415-.6851-1.09193-.4523-2.08408-1.1152-2.91981-1.9509-.83573-.8358-1.49866-1.8279-1.95096-2.9198C3.23279 14.3522 3 13.1819 3 12c0-2.38695.94821-4.67613 2.63604-6.36396S9.61305 3 12 3c2.3869 0 4.6761.94821 6.364 2.63604C20.0518 7.32387 21 9.61305 21 12Z" stroke="#3F3F46" stroke-width="2" stroke-linecap="round" stroke-linejoin="round"/></svg>